STARTFONT 2.1
FONT -Linotype-Palatino-Medium-R-Normal--10-100-72-72-P-55-ISO8859-1
SIZE 10 72 72
FONTBOUNDINGBOX 12 13 -1 -3

STARTPROPERTIES 21
FOUNDRY "Linotype"
FAMILY_NAME "Palatino"
WEIGHT_NAME "Medium"
SLANT "R"
SETWIDTH_NAME "Normal"
ADD_STYLE_NAME ""
PIXEL_SIZE 10
POINT_SIZE 100
RESOLUTION_X 72
RESOLUTION_Y 72
SPACING "P"
AVERAGE_WIDTH 55
CHARSET_REGISTRY "ISO8859"
CHARSET_ENCODING "1"
FULL_NAME "Palatino-Roman"
QUAD_WIDTH 5
X_HEIGHT 5
WEIGHT 10
DEFAULT_CHAR 32
FONT_DESCENT 3
FONT_ASCENT 10
ENDPROPERTIES

CHARS 190

STARTCHAR space
ENCODING 32
SWIDTH 250 0
DWIDTH 3 0
BBX 1 1 0 0
BITMAP
00
ENDCHAR

STARTCHAR exclam
ENCODING 33
SWIDTH 278 0
DWIDTH 3 0
BBX 1 7 1 0
BITMAP
80
80
80
80
80
00
80
ENDCHAR

STARTCHAR quotedbl
ENCODING 34
SWIDTH 371 0
DWIDTH 4 0
BBX 3 2 0 5
BITMAP
A0
A0
ENDCHAR

STARTCHAR numbersign
ENCODING 35
SWIDTH 500 0
DWIDTH 6 0
BBX 6 7 0 0
BITMAP
28
28
FC
50
FC
50
50
ENDCHAR

STARTCHAR dollar
ENCODING 36
SWIDTH 500 0
DWIDTH 5 0
BBX 5 9 0 -1
BITMAP
20
78
A8
A0
70
28
A8
F0
20
ENDCHAR

STARTCHAR percent
ENCODING 37
SWIDTH 840 0
DWIDTH 8 0
BBX 7 7 0 0
BITMAP
48
A8
B0
54
2A
4A
44
ENDCHAR

STARTCHAR ampersand
ENCODING 38
SWIDTH 778 0
DWIDTH 8 0
BBX 7 7 0 0
BITMAP
30
50
20
6E
94
C8
76
ENDCHAR

STARTCHAR quoteright
ENCODING 39
SWIDTH 278 0
DWIDTH 3 0
BBX 2 3 0 4
BITMAP
40
40
80
ENDCHAR

STARTCHAR parenleft
ENCODING 40
SWIDTH 333 0
DWIDTH 3 0
BBX 3 10 0 -2
BITMAP
20
40
40
80
80
80
80
40
40
20
ENDCHAR

STARTCHAR parenright
ENCODING 41
SWIDTH 333 0
DWIDTH 3 0
BBX 3 10 0 -2
BITMAP
80
40
40
20
20
20
20
40
40
80
ENDCHAR

STARTCHAR asterisk
ENCODING 42
SWIDTH 389 0
DWIDTH 4 0
BBX 3 4 0 3
BITMAP
40
E0
40
A0
ENDCHAR

STARTCHAR plus
ENCODING 43
SWIDTH 606 0
DWIDTH 6 0
BBX 5 5 0 1
BITMAP
20
20
F8
20
20
ENDCHAR

STARTCHAR comma
ENCODING 44
SWIDTH 250 0
DWIDTH 3 0
BBX 2 3 0 -1
BITMAP
40
40
80
ENDCHAR

STARTCHAR minus
ENCODING 45
SWIDTH 606 0
DWIDTH 6 0
BBX 5 1 0 3
BITMAP
F8
ENDCHAR

STARTCHAR period
ENCODING 46
SWIDTH 250 0
DWIDTH 3 0
BBX 1 2 1 0
BITMAP
80
80
ENDCHAR

STARTCHAR slash
ENCODING 47
SWIDTH 606 0
DWIDTH 6 0
BBX 4 8 1 -1
BITMAP
10
10
20
20
40
40
80
80
ENDCHAR

STARTCHAR zero
ENCODING 48
SWIDTH 500 0
DWIDTH 5 0
BBX 4 7 0 0
BITMAP
60
90
90
90
90
90
60
ENDCHAR

STARTCHAR one
ENCODING 49
SWIDTH 500 0
DWIDTH 5 0
BBX 3 7 1 0
BITMAP
40
C0
40
40
40
40
E0
ENDCHAR

STARTCHAR two
ENCODING 50
SWIDTH 500 0
DWIDTH 5 0
BBX 4 7 0 0
BITMAP
E0
90
10
20
40
80
F0
ENDCHAR

STARTCHAR three
ENCODING 51
SWIDTH 500 0
DWIDTH 5 0
BBX 4 7 0 0
BITMAP
60
90
10
60
10
90
E0
ENDCHAR

STARTCHAR four
ENCODING 52
SWIDTH 500 0
DWIDTH 5 0
BBX 4 7 0 0
BITMAP
20
60
60
A0
F0
20
70
ENDCHAR

STARTCHAR five
ENCODING 53
SWIDTH 500 0
DWIDTH 5 0
BBX 4 7 0 0
BITMAP
F0
80
E0
90
10
90
E0
ENDCHAR

STARTCHAR six
ENCODING 54
SWIDTH 500 0
DWIDTH 5 0
BBX 4 7 0 0
BITMAP
30
40
E0
90
90
90
60
ENDCHAR

STARTCHAR seven
ENCODING 55
SWIDTH 500 0
DWIDTH 5 0
BBX 4 7 0 0
BITMAP
F0
90
10
20
20
40
40
ENDCHAR

STARTCHAR eight
ENCODING 56
SWIDTH 500 0
DWIDTH 5 0
BBX 4 7 0 0
BITMAP
60
90
90
60
90
90
60
ENDCHAR

STARTCHAR nine
ENCODING 57
SWIDTH 500 0
DWIDTH 5 0
BBX 4 7 0 0
BITMAP
60
90
90
90
70
20
C0
ENDCHAR

STARTCHAR colon
ENCODING 58
SWIDTH 250 0
DWIDTH 3 0
BBX 1 5 1 0
BITMAP
80
80
00
80
80
ENDCHAR

STARTCHAR semicolon
ENCODING 59
SWIDTH 250 0
DWIDTH 3 0
BBX 2 6 0 -1
BITMAP
40
40
00
40
40
80
ENDCHAR

STARTCHAR less
ENCODING 60
SWIDTH 606 0
DWIDTH 6 0
BBX 5 5 0 0
BITMAP
18
60
80
60
18
ENDCHAR

STARTCHAR equal
ENCODING 61
SWIDTH 606 0
DWIDTH 6 0
BBX 5 3 0 2
BITMAP
F8
00
F8
ENDCHAR

STARTCHAR greater
ENCODING 62
SWIDTH 606 0
DWIDTH 6 0
BBX 5 5 0 0
BITMAP
C0
30
08
30
C0
ENDCHAR

STARTCHAR question
ENCODING 63
SWIDTH 444 0
DWIDTH 4 0
BBX 3 7 1 0
BITMAP
C0
A0
20
40
40
00
40
ENDCHAR

STARTCHAR at
ENCODING 64
SWIDTH 747 0
DWIDTH 7 0
BBX 7 7 0 0
BITMAP
38
44
9A
AA
BC
40
3C
ENDCHAR

STARTCHAR A
ENCODING 65
SWIDTH 778 0
DWIDTH 8 0
BBX 7 7 0 0
BITMAP
10
10
28
28
7C
44
EE
ENDCHAR

STARTCHAR B
ENCODING 66
SWIDTH 611 0
DWIDTH 6 0
BBX 5 7 0 0
BITMAP
F0
48
48
70
48
48
F0
ENDCHAR

STARTCHAR C
ENCODING 67
SWIDTH 709 0
DWIDTH 7 0
BBX 6 7 0 0
BITMAP
3C
44
80
80
80
C4
78
ENDCHAR

STARTCHAR D
ENCODING 68
SWIDTH 774 0
DWIDTH 8 0
BBX 7 7 0 0
BITMAP
FC
46
42
42
42
44
F8
ENDCHAR

STARTCHAR E
ENCODING 69
SWIDTH 611 0
DWIDTH 6 0
BBX 5 7 0 0
BITMAP
F8
48
40
70
40
48
F8
ENDCHAR

STARTCHAR F
ENCODING 70
SWIDTH 556 0
DWIDTH 6 0
BBX 5 7 0 0
BITMAP
F8
48
40
70
40
40
E0
ENDCHAR

STARTCHAR G
ENCODING 71
SWIDTH 763 0
DWIDTH 7 0
BBX 6 7 0 0
BITMAP
3C
44
80
80
8C
C4
78
ENDCHAR

STARTCHAR H
ENCODING 72
SWIDTH 832 0
DWIDTH 8 0
BBX 7 7 0 0
BITMAP
EE
44
44
7C
44
44
EE
ENDCHAR

STARTCHAR I
ENCODING 73
SWIDTH 337 0
DWIDTH 4 0
BBX 3 7 0 0
BITMAP
E0
40
40
40
40
40
E0
ENDCHAR

STARTCHAR J
ENCODING 74
SWIDTH 333 0
DWIDTH 4 0
BBX 3 9 0 -2
BITMAP
E0
40
40
40
40
40
40
40
80
ENDCHAR

STARTCHAR K
ENCODING 75
SWIDTH 726 0
DWIDTH 7 0
BBX 7 7 0 0
BITMAP
EC
48
50
70
58
4C
E6
ENDCHAR

STARTCHAR L
ENCODING 76
SWIDTH 611 0
DWIDTH 6 0
BBX 5 7 0 0
BITMAP
E0
40
40
40
40
48
F8
ENDCHAR

STARTCHAR M
ENCODING 77
SWIDTH 946 0
DWIDTH 10 0
BBX 9 7 0 0
BITMAP
C180
6300
6300
5500
5500
4900
EB80
ENDCHAR

STARTCHAR N
ENCODING 78
SWIDTH 831 0
DWIDTH 8 0
BBX 7 7 0 0
BITMAP
CE
64
54
54
4C
4C
E4
ENDCHAR

STARTCHAR O
ENCODING 79
SWIDTH 786 0
DWIDTH 8 0
BBX 7 7 0 0
BITMAP
3C
C6
82
82
82
C6
78
ENDCHAR

STARTCHAR P
ENCODING 80
SWIDTH 604 0
DWIDTH 6 0
BBX 5 7 0 0
BITMAP
F0
48
48
50
40
40
E0
ENDCHAR

STARTCHAR Q
ENCODING 81
SWIDTH 786 0
DWIDTH 8 0
BBX 7 9 0 -2
BITMAP
3C
46
82
82
82
C4
78
32
4C
ENDCHAR

STARTCHAR R
ENCODING 82
SWIDTH 668 0
DWIDTH 7 0
BBX 6 7 0 0
BITMAP
F0
48
48
70
50
48
EC
ENDCHAR

STARTCHAR S
ENCODING 83
SWIDTH 525 0
DWIDTH 5 0
BBX 4 7 0 0
BITMAP
70
90
80
60
10
90
E0
ENDCHAR

STARTCHAR T
ENCODING 84
SWIDTH 613 0
DWIDTH 6 0
BBX 5 7 0 0
BITMAP
F8
A8
20
20
20
20
70
ENDCHAR

STARTCHAR U
ENCODING 85
SWIDTH 778 0
DWIDTH 8 0
BBX 8 7 0 0
BITMAP
E7
42
42
42
42
42
3C
ENDCHAR

STARTCHAR V
ENCODING 86
SWIDTH 722 0
DWIDTH 7 0
BBX 7 7 0 0
BITMAP
C6
44
44
28
28
10
10
ENDCHAR

STARTCHAR W
ENCODING 87
SWIDTH 1000 0
DWIDTH 11 0
BBX 11 7 0 0
BITMAP
E4E0
4440
4A40
2A80
3B80
1100
1100
ENDCHAR

STARTCHAR X
ENCODING 88
SWIDTH 667 0
DWIDTH 7 0
BBX 6 7 0 0
BITMAP
C4
48
30
30
30
48
8C
ENDCHAR

STARTCHAR Y
ENCODING 89
SWIDTH 667 0
DWIDTH 7 0
BBX 7 7 0 0
BITMAP
C6
44
28
10
10
10
38
ENDCHAR

STARTCHAR Z
ENCODING 90
SWIDTH 667 0
DWIDTH 7 0
BBX 6 7 0 0
BITMAP
FC
88
10
20
40
84
FC
ENDCHAR

STARTCHAR bracketleft
ENCODING 91
SWIDTH 333 0
DWIDTH 3 0
BBX 2 8 0 -1
BITMAP
C0
80
80
80
80
80
80
C0
ENDCHAR

STARTCHAR backslash
ENCODING 92
SWIDTH 606 0
DWIDTH 6 0
BBX 4 8 1 -1
BITMAP
80
80
40
40
20
20
10
10
ENDCHAR

STARTCHAR bracketright
ENCODING 93
SWIDTH 333 0
DWIDTH 3 0
BBX 2 8 0 -1
BITMAP
C0
40
40
40
40
40
40
C0
ENDCHAR

STARTCHAR asciicircum
ENCODING 94
SWIDTH 606 0
DWIDTH 6 0
BBX 5 5 0 2
BITMAP
20
20
50
50
88
ENDCHAR

STARTCHAR underscore
ENCODING 95
SWIDTH 500 0
DWIDTH 5 0
BBX 5 1 0 -1
BITMAP
F8
ENDCHAR

STARTCHAR quoteleft
ENCODING 96
SWIDTH 278 0
DWIDTH 3 0
BBX 2 3 0 4
BITMAP
40
80
80
ENDCHAR

STARTCHAR a
ENCODING 97
SWIDTH 500 0
DWIDTH 6 0
BBX 5 5 0 0
BITMAP
60
90
70
90
F8
ENDCHAR

STARTCHAR b
ENCODING 98
SWIDTH 553 0
DWIDTH 5 0
BBX 5 7 -1 0
BITMAP
C0
40
70
48
48
48
70
ENDCHAR

STARTCHAR c
ENCODING 99
SWIDTH 444 0
DWIDTH 5 0
BBX 4 5 0 0
BITMAP
70
90
80
80
70
ENDCHAR

STARTCHAR d
ENCODING 100
SWIDTH 611 0
DWIDTH 6 0
BBX 5 7 0 0
BITMAP
30
10
70
90
90
90
78
ENDCHAR

STARTCHAR e
ENCODING 101
SWIDTH 479 0
DWIDTH 5 0
BBX 4 5 0 0
BITMAP
60
90
F0
80
70
ENDCHAR

STARTCHAR f
ENCODING 102
SWIDTH 333 0
DWIDTH 4 0
BBX 4 7 0 0
BITMAP
30
40
E0
40
40
40
E0
ENDCHAR

STARTCHAR g
ENCODING 103
SWIDTH 556 0
DWIDTH 6 0
BBX 5 8 0 -3
BITMAP
78
90
70
80
70
88
88
70
ENDCHAR

STARTCHAR h
ENCODING 104
SWIDTH 582 0
DWIDTH 7 0
BBX 6 7 0 0
BITMAP
C0
40
70
48
48
48
EC
ENDCHAR

STARTCHAR i
ENCODING 105
SWIDTH 291 0
DWIDTH 4 0
BBX 3 7 0 0
BITMAP
40
00
C0
40
40
40
E0
ENDCHAR

STARTCHAR j
ENCODING 106
SWIDTH 234 0
DWIDTH 3 0
BBX 2 10 0 -3
BITMAP
40
00
C0
40
40
40
40
40
40
80
ENDCHAR

STARTCHAR k
ENCODING 107
SWIDTH 556 0
DWIDTH 6 0
BBX 5 7 0 0
BITMAP
C0
40
58
50
60
50
D8
ENDCHAR

STARTCHAR l
ENCODING 108
SWIDTH 291 0
DWIDTH 4 0
BBX 3 7 0 0
BITMAP
C0
40
40
40
40
40
E0
ENDCHAR

STARTCHAR m
ENCODING 109
SWIDTH 883 0
DWIDTH 8 0
BBX 8 5 -1 0
BITMAP
F6
49
49
49
49
ENDCHAR

STARTCHAR n
ENCODING 110
SWIDTH 582 0
DWIDTH 5 0
BBX 5 5 -1 0
BITMAP
F0
48
48
48
48
ENDCHAR

STARTCHAR o
ENCODING 111
SWIDTH 546 0
DWIDTH 5 0
BBX 4 5 0 0
BITMAP
60
90
90
90
60
ENDCHAR

STARTCHAR p
ENCODING 112
SWIDTH 601 0
DWIDTH 5 0
BBX 5 8 -1 -3
BITMAP
F0
48
48
48
70
40
40
E0
ENDCHAR

STARTCHAR q
ENCODING 113
SWIDTH 560 0
DWIDTH 5 0
BBX 5 8 0 -3
BITMAP
70
90
90
90
70
10
10
38
ENDCHAR

STARTCHAR r
ENCODING 114
SWIDTH 395 0
DWIDTH 4 0
BBX 4 5 0 0
BITMAP
F0
40
40
40
E0
ENDCHAR

STARTCHAR s
ENCODING 115
SWIDTH 424 0
DWIDTH 4 0
BBX 3 5 0 0
BITMAP
60
80
60
20
C0
ENDCHAR

STARTCHAR t
ENCODING 116
SWIDTH 326 0
DWIDTH 3 0
BBX 3 7 -1 0
BITMAP
40
40
E0
40
40
40
20
ENDCHAR

STARTCHAR u
ENCODING 117
SWIDTH 603 0
DWIDTH 6 0
BBX 5 5 0 0
BITMAP
90
90
90
90
78
ENDCHAR

STARTCHAR v
ENCODING 118
SWIDTH 565 0
DWIDTH 6 0
BBX 5 5 0 0
BITMAP
D8
50
50
20
20
ENDCHAR

STARTCHAR w
ENCODING 119
SWIDTH 834 0
DWIDTH 7 0
BBX 7 5 0 0
BITMAP
D6
54
54
28
28
ENDCHAR

STARTCHAR x
ENCODING 120
SWIDTH 516 0
DWIDTH 6 0
BBX 5 5 0 0
BITMAP
C8
50
20
50
98
ENDCHAR

STARTCHAR y
ENCODING 121
SWIDTH 556 0
DWIDTH 5 0
BBX 6 8 -1 -3
BITMAP
CC
48
28
30
10
20
20
C0
ENDCHAR

STARTCHAR z
ENCODING 122
SWIDTH 500 0
DWIDTH 5 0
BBX 4 5 0 0
BITMAP
F0
20
40
80
F0
ENDCHAR

STARTCHAR braceleft
ENCODING 123
SWIDTH 333 0
DWIDTH 3 0
BBX 3 8 0 -1
BITMAP
60
40
40
80
40
40
40
60
ENDCHAR

STARTCHAR bar
ENCODING 124
SWIDTH 606 0
DWIDTH 6 0
BBX 1 7 2 0
BITMAP
80
80
80
80
80
80
80
ENDCHAR

STARTCHAR braceright
ENCODING 125
SWIDTH 333 0
DWIDTH 3 0
BBX 3 8 0 -1
BITMAP
C0
40
40
20
40
40
40
C0
ENDCHAR

STARTCHAR asciitilde
ENCODING 126
SWIDTH 606 0
DWIDTH 6 0
BBX 5 2 0 2
BITMAP
68
B0
ENDCHAR

STARTCHAR exclamdown
ENCODING 161
SWIDTH 278 0
DWIDTH 3 0
BBX 1 7 1 -2
BITMAP
80
00
80
80
80
80
80
ENDCHAR

STARTCHAR cent
ENCODING 162
SWIDTH 500 0
DWIDTH 5 0
BBX 4 7 0 -1
BITMAP
20
70
B0
A0
A0
70
20
ENDCHAR

STARTCHAR sterling
ENCODING 163
SWIDTH 500 0
DWIDTH 5 0
BBX 5 7 0 0
BITMAP
38
48
40
F0
40
48
F8
ENDCHAR

STARTCHAR currency
ENCODING 164
SWIDTH 500 0
DWIDTH 6 0
BBX 5 5 0 1
BITMAP
A8
50
88
50
A8
ENDCHAR

STARTCHAR yen
ENCODING 165
SWIDTH 500 0
DWIDTH 5 0
BBX 5 7 0 0
BITMAP
88
50
50
70
20
70
20
ENDCHAR

STARTCHAR brokenbar
ENCODING 166
SWIDTH 606 0
DWIDTH 6 0
BBX 1 7 2 0
BITMAP
80
80
80
00
80
80
80
ENDCHAR

STARTCHAR section
ENCODING 167
SWIDTH 500 0
DWIDTH 5 0
BBX 4 9 0 -2
BITMAP
70
90
40
A0
90
50
20
90
E0
ENDCHAR

STARTCHAR dieresis
ENCODING 168
SWIDTH 333 0
DWIDTH 3 0
BBX 3 1 0 6
BITMAP
A0
ENDCHAR

STARTCHAR copyright
ENCODING 169
SWIDTH 747 0
DWIDTH 7 0
BBX 7 7 0 0
BITMAP
38
44
9A
A2
9A
44
38
ENDCHAR

STARTCHAR ordfeminine
ENCODING 170
SWIDTH 333 0
DWIDTH 3 0
BBX 3 5 0 2
BITMAP
E0
60
E0
00
E0
ENDCHAR

STARTCHAR guillemotleft
ENCODING 171
SWIDTH 500 0
DWIDTH 5 0
BBX 4 3 0 1
BITMAP
50
A0
50
ENDCHAR

STARTCHAR logicalnot
ENCODING 172
SWIDTH 606 0
DWIDTH 6 0
BBX 5 3 0 1
BITMAP
F8
08
08
ENDCHAR

STARTCHAR hyphen
ENCODING 173
SWIDTH 333 0
DWIDTH 3 0
BBX 3 1 0 2
BITMAP
E0
ENDCHAR

STARTCHAR registered
ENCODING 174
SWIDTH 747 0
DWIDTH 7 0
BBX 7 7 0 0
BITMAP
38
44
BA
B2
AA
44
38
ENDCHAR

STARTCHAR macron
ENCODING 175
SWIDTH 333 0
DWIDTH 3 0
BBX 3 1 0 6
BITMAP
E0
ENDCHAR

STARTCHAR degree
ENCODING 176
SWIDTH 400 0
DWIDTH 5 0
BBX 3 3 1 4
BITMAP
40
A0
40
ENDCHAR

STARTCHAR plusminus
ENCODING 177
SWIDTH 606 0
DWIDTH 6 0
BBX 5 6 0 0
BITMAP
20
20
F8
20
20
F8
ENDCHAR

STARTCHAR twosuperior
ENCODING 178
SWIDTH 300 0
DWIDTH 3 0
BBX 3 5 0 2
BITMAP
C0
A0
20
40
E0
ENDCHAR

STARTCHAR threesuperior
ENCODING 179
SWIDTH 300 0
DWIDTH 3 0
BBX 3 5 0 2
BITMAP
E0
A0
60
A0
C0
ENDCHAR

STARTCHAR acute
ENCODING 180
SWIDTH 333 0
DWIDTH 3 0
BBX 2 2 0 5
BITMAP
40
80
ENDCHAR

STARTCHAR mu
ENCODING 181
SWIDTH 603 0
DWIDTH 6 0
BBX 5 7 0 -2
BITMAP
90
90
90
90
F8
80
80
ENDCHAR

STARTCHAR paragraph
ENCODING 182
SWIDTH 628 0
DWIDTH 6 0
BBX 6 9 0 -2
BITMAP
7C
E8
E8
E8
68
28
28
28
7C
ENDCHAR

STARTCHAR periodcentered
ENCODING 183
SWIDTH 250 0
DWIDTH 5 0
BBX 1 2 2 3
BITMAP
80
80
ENDCHAR

STARTCHAR cedilla
ENCODING 184
SWIDTH 333 0
DWIDTH 3 0
BBX 2 2 0 -2
BITMAP
40
C0
ENDCHAR

STARTCHAR onesuperior
ENCODING 185
SWIDTH 300 0
DWIDTH 3 0
BBX 3 5 0 2
BITMAP
C0
40
40
40
E0
ENDCHAR

STARTCHAR ordmasculine
ENCODING 186
SWIDTH 333 0
DWIDTH 3 0
BBX 3 5 0 2
BITMAP
40
A0
40
00
E0
ENDCHAR

STARTCHAR guillemotright
ENCODING 187
SWIDTH 500 0
DWIDTH 5 0
BBX 4 3 0 1
BITMAP
A0
50
A0
ENDCHAR

STARTCHAR onequarter
ENCODING 188
SWIDTH 750 0
DWIDTH 8 0
BBX 8 7 0 0
BITMAP
C4
48
4A
56
EA
2F
42
ENDCHAR

STARTCHAR onehalf
ENCODING 189
SWIDTH 750 0
DWIDTH 8 0
BBX 8 7 0 0
BITMAP
C4
48
4A
55
E1
22
47
ENDCHAR

STARTCHAR threequarters
ENCODING 190
SWIDTH 750 0
DWIDTH 8 0
BBX 8 7 0 0
BITMAP
E4
A8
6A
B6
E6
2F
42
ENDCHAR

STARTCHAR questiondown
ENCODING 191
SWIDTH 444 0
DWIDTH 4 0
BBX 3 7 0 -2
BITMAP
40
00
40
40
80
A0
60
ENDCHAR

STARTCHAR Agrave
ENCODING 192
SWIDTH 778 0
DWIDTH 8 0
BBX 7 9 0 0
BITMAP
30
08
10
10
28
28
7C
44
EE
ENDCHAR

STARTCHAR Aacute
ENCODING 193
SWIDTH 778 0
DWIDTH 8 0
BBX 7 9 0 0
BITMAP
18
20
10
10
28
28
7C
44
EE
ENDCHAR

STARTCHAR Acircumflex
ENCODING 194
SWIDTH 778 0
DWIDTH 8 0
BBX 7 9 0 0
BITMAP
18
24
10
10
28
28
7C
44
EE
ENDCHAR

STARTCHAR Atilde
ENCODING 195
SWIDTH 778 0
DWIDTH 8 0
BBX 7 9 0 0
BITMAP
34
2C
10
10
28
28
7C
44
EE
ENDCHAR

STARTCHAR Adieresis
ENCODING 196
SWIDTH 778 0
DWIDTH 8 0
BBX 7 9 0 0
BITMAP
28
00
10
10
28
28
7C
44
EE
ENDCHAR

STARTCHAR Aring
ENCODING 197
SWIDTH 778 0
DWIDTH 8 0
BBX 7 10 0 0
BITMAP
10
28
10
10
10
28
28
7C
44
EE
ENDCHAR

STARTCHAR AE
ENCODING 198
SWIDTH 944 0
DWIDTH 9 0
BBX 9 7 0 0
BITMAP
1F80
0C80
1400
2700
3C00
4480
EF80
ENDCHAR

STARTCHAR Ccedilla
ENCODING 199
SWIDTH 709 0
DWIDTH 7 0
BBX 6 9 0 -2
BITMAP
3C
44
80
80
80
C4
78
10
30
ENDCHAR

STARTCHAR Egrave
ENCODING 200
SWIDTH 611 0
DWIDTH 6 0
BBX 5 9 0 0
BITMAP
60
10
F8
48
40
70
40
48
F8
ENDCHAR

STARTCHAR Eacute
ENCODING 201
SWIDTH 611 0
DWIDTH 6 0
BBX 5 9 0 0
BITMAP
18
20
F8
48
40
70
40
48
F8
ENDCHAR

STARTCHAR Ecircumflex
ENCODING 202
SWIDTH 611 0
DWIDTH 6 0
BBX 5 9 0 0
BITMAP
30
48
F8
48
40
70
40
48
F8
ENDCHAR

STARTCHAR Edieresis
ENCODING 203
SWIDTH 611 0
DWIDTH 6 0
BBX 5 9 0 0
BITMAP
50
00
F8
48
40
70
40
48
F8
ENDCHAR

STARTCHAR Igrave
ENCODING 204
SWIDTH 337 0
DWIDTH 4 0
BBX 3 9 0 0
BITMAP
C0
20
E0
40
40
40
40
40
E0
ENDCHAR

STARTCHAR Iacute
ENCODING 205
SWIDTH 337 0
DWIDTH 4 0
BBX 3 9 0 0
BITMAP
60
80
E0
40
40
40
40
40
E0
ENDCHAR

STARTCHAR Icircumflex
ENCODING 206
SWIDTH 337 0
DWIDTH 4 0
BBX 4 9 0 0
BITMAP
60
90
E0
40
40
40
40
40
E0
ENDCHAR

STARTCHAR Idieresis
ENCODING 207
SWIDTH 337 0
DWIDTH 4 0
BBX 3 9 0 0
BITMAP
A0
00
E0
40
40
40
40
40
E0
ENDCHAR

STARTCHAR Eth
ENCODING 208
SWIDTH 774 0
DWIDTH 8 0
BBX 7 7 0 0
BITMAP
FC
46
42
F2
42
44
F8
ENDCHAR

STARTCHAR Ntilde
ENCODING 209
SWIDTH 831 0
DWIDTH 8 0
BBX 7 9 0 0
BITMAP
34
2C
CE
64
54
54
4C
4C
E4
ENDCHAR

STARTCHAR Ograve
ENCODING 210
SWIDTH 786 0
DWIDTH 8 0
BBX 7 9 0 0
BITMAP
30
08
3C
C6
82
82
82
C6
78
ENDCHAR

STARTCHAR Oacute
ENCODING 211
SWIDTH 786 0
DWIDTH 8 0
BBX 7 9 0 0
BITMAP
18
20
3C
C6
82
82
82
C6
78
ENDCHAR

STARTCHAR Ocircumflex
ENCODING 212
SWIDTH 786 0
DWIDTH 8 0
BBX 7 9 0 0
BITMAP
18
24
3C
C6
82
82
82
C6
78
ENDCHAR

STARTCHAR Otilde
ENCODING 213
SWIDTH 786 0
DWIDTH 8 0
BBX 7 9 0 0
BITMAP
34
2C
3C
C6
82
82
82
C6
78
ENDCHAR

STARTCHAR Odieresis
ENCODING 214
SWIDTH 786 0
DWIDTH 8 0
BBX 7 9 0 0
BITMAP
28
00
3C
C6
82
82
82
C6
78
ENDCHAR

STARTCHAR multiply
ENCODING 215
SWIDTH 606 0
DWIDTH 6 0
BBX 5 5 0 1
BITMAP
88
50
20
50
88
ENDCHAR

STARTCHAR Oslash
ENCODING 216
SWIDTH 833 0
DWIDTH 8 0
BBX 7 7 0 0
BITMAP
3E
C6
8A
92
A2
C6
F8
ENDCHAR

STARTCHAR Ugrave
ENCODING 217
SWIDTH 778 0
DWIDTH 8 0
BBX 8 9 0 0
BITMAP
30
08
E7
42
42
42
42
42
3C
ENDCHAR

STARTCHAR Uacute
ENCODING 218
SWIDTH 778 0
DWIDTH 8 0
BBX 8 9 0 0
BITMAP
0C
10
E7
42
42
42
42
42
3C
ENDCHAR

STARTCHAR Ucircumflex
ENCODING 219
SWIDTH 778 0
DWIDTH 8 0
BBX 8 9 0 0
BITMAP
18
24
E7
42
42
42
42
42
3C
ENDCHAR

STARTCHAR Udieresis
ENCODING 220
SWIDTH 778 0
DWIDTH 8 0
BBX 8 9 0 0
BITMAP
14
00
E7
42
42
42
42
42
3C
ENDCHAR

STARTCHAR Yacute
ENCODING 221
SWIDTH 667 0
DWIDTH 7 0
BBX 7 9 0 0
BITMAP
0C
10
C6
44
28
10
10
10
38
ENDCHAR

STARTCHAR Thorn
ENCODING 222
SWIDTH 604 0
DWIDTH 6 0
BBX 6 7 0 0
BITMAP
E0
78
44
44
58
40
E0
ENDCHAR

STARTCHAR germandbls
ENCODING 223
SWIDTH 556 0
DWIDTH 6 0
BBX 5 7 0 0
BITMAP
38
48
D8
50
48
58
F0
ENDCHAR

STARTCHAR agrave
ENCODING 224
SWIDTH 500 0
DWIDTH 6 0
BBX 5 7 0 0
BITMAP
C0
20
60
90
70
90
F8
ENDCHAR

STARTCHAR aacute
ENCODING 225
SWIDTH 500 0
DWIDTH 6 0
BBX 5 7 0 0
BITMAP
30
40
60
90
70
90
F8
ENDCHAR

STARTCHAR acircumflex
ENCODING 226
SWIDTH 500 0
DWIDTH 6 0
BBX 5 7 0 0
BITMAP
60
90
60
90
70
90
F8
ENDCHAR

STARTCHAR atilde
ENCODING 227
SWIDTH 500 0
DWIDTH 6 0
BBX 5 7 0 0
BITMAP
D0
B0
60
90
70
90
F8
ENDCHAR

STARTCHAR adieresis
ENCODING 228
SWIDTH 500 0
DWIDTH 6 0
BBX 5 7 0 0
BITMAP
50
00
60
90
70
90
F8
ENDCHAR

STARTCHAR aring
ENCODING 229
SWIDTH 500 0
DWIDTH 6 0
BBX 5 8 0 0
BITMAP
20
50
20
60
90
70
90
F8
ENDCHAR

STARTCHAR ae
ENCODING 230
SWIDTH 758 0
DWIDTH 8 0
BBX 7 5 0 0
BITMAP
6C
B2
7E
90
FE
ENDCHAR

STARTCHAR ccedilla
ENCODING 231
SWIDTH 444 0
DWIDTH 5 0
BBX 4 7 0 -2
BITMAP
70
90
80
80
70
20
60
ENDCHAR

STARTCHAR egrave
ENCODING 232
SWIDTH 479 0
DWIDTH 5 0
BBX 4 7 0 0
BITMAP
C0
20
60
90
F0
80
70
ENDCHAR

STARTCHAR eacute
ENCODING 233
SWIDTH 479 0
DWIDTH 5 0
BBX 4 7 0 0
BITMAP
30
40
60
90
F0
80
70
ENDCHAR

STARTCHAR ecircumflex
ENCODING 234
SWIDTH 479 0
DWIDTH 5 0
BBX 4 7 0 0
BITMAP
60
90
60
90
F0
80
70
ENDCHAR

STARTCHAR edieresis
ENCODING 235
SWIDTH 479 0
DWIDTH 5 0
BBX 4 7 0 0
BITMAP
50
00
60
90
F0
80
70
ENDCHAR

STARTCHAR igrave
ENCODING 236
SWIDTH 287 0
DWIDTH 4 0
BBX 3 7 0 0
BITMAP
C0
20
C0
40
40
40
E0
ENDCHAR

STARTCHAR iacute
ENCODING 237
SWIDTH 287 0
DWIDTH 4 0
BBX 3 7 0 0
BITMAP
60
80
C0
40
40
40
E0
ENDCHAR

STARTCHAR icircumflex
ENCODING 238
SWIDTH 287 0
DWIDTH 4 0
BBX 4 7 -1 0
BITMAP
60
90
60
20
20
20
70
ENDCHAR

STARTCHAR idieresis
ENCODING 239
SWIDTH 287 0
DWIDTH 4 0
BBX 3 7 0 0
BITMAP
A0
00
C0
40
40
40
E0
ENDCHAR

STARTCHAR eth
ENCODING 240
SWIDTH 546 0
DWIDTH 5 0
BBX 4 7 0 0
BITMAP
D0
60
70
90
90
90
60
ENDCHAR

STARTCHAR ntilde
ENCODING 241
SWIDTH 582 0
DWIDTH 5 0
BBX 5 7 -1 0
BITMAP
68
58
F0
48
48
48
48
ENDCHAR

STARTCHAR ograve
ENCODING 242
SWIDTH 546 0
DWIDTH 5 0
BBX 4 7 0 0
BITMAP
C0
20
60
90
90
90
60
ENDCHAR

STARTCHAR oacute
ENCODING 243
SWIDTH 546 0
DWIDTH 5 0
BBX 4 7 0 0
BITMAP
30
40
60
90
90
90
60
ENDCHAR

STARTCHAR ocircumflex
ENCODING 244
SWIDTH 546 0
DWIDTH 5 0
BBX 4 7 0 0
BITMAP
60
90
60
90
90
90
60
ENDCHAR

STARTCHAR otilde
ENCODING 245
SWIDTH 546 0
DWIDTH 5 0
BBX 4 7 0 0
BITMAP
D0
B0
60
90
90
90
60
ENDCHAR

STARTCHAR odieresis
ENCODING 246
SWIDTH 546 0
DWIDTH 5 0
BBX 4 7 0 0
BITMAP
50
00
60
90
90
90
60
ENDCHAR

STARTCHAR divide
ENCODING 247
SWIDTH 606 0
DWIDTH 6 0
BBX 5 5 0 1
BITMAP
20
00
F8
00
20
ENDCHAR

STARTCHAR oslash
ENCODING 248
SWIDTH 556 0
DWIDTH 5 0
BBX 4 5 0 0
BITMAP
70
B0
B0
D0
E0
ENDCHAR

STARTCHAR ugrave
ENCODING 249
SWIDTH 603 0
DWIDTH 6 0
BBX 5 7 0 0
BITMAP
C0
20
90
90
90
90
78
ENDCHAR

STARTCHAR uacute
ENCODING 250
SWIDTH 603 0
DWIDTH 6 0
BBX 5 7 0 0
BITMAP
30
40
90
90
90
90
78
ENDCHAR

STARTCHAR ucircumflex
ENCODING 251
SWIDTH 603 0
DWIDTH 6 0
BBX 5 7 0 0
BITMAP
60
90
90
90
90
90
78
ENDCHAR

STARTCHAR udieresis
ENCODING 252
SWIDTH 603 0
DWIDTH 6 0
BBX 5 7 0 0
BITMAP
50
00
90
90
90
90
78
ENDCHAR

STARTCHAR yacute
ENCODING 253
SWIDTH 556 0
DWIDTH 5 0
BBX 6 10 -1 -3
BITMAP
18
20
CC
48
28
30
10
20
60
C0
ENDCHAR

STARTCHAR thorn
ENCODING 254
SWIDTH 601 0
DWIDTH 6 0
BBX 5 10 0 -3
BITMAP
C0
40
70
48
48
48
70
40
40
E0
ENDCHAR

STARTCHAR ydieresis
ENCODING 255
SWIDTH 556 0
DWIDTH 5 0
BBX 6 10 -1 -3
BITMAP
28
00
CC
48
28
30
10
20
60
C0
ENDCHAR
ENDFONT
